<?xml version="1.0" standalone="no"?>
<!DOCTYPE svg PUBLIC "-//W3C//DTD SVG 20010904//EN"
 "http://www.w3.org/TR/2001/REC-SVG-20010904/DTD/svg10.dtd">
<svg version="1.0" xmlns="http://www.w3.org/2000/svg"
 width="200.000000pt" height="200.000000pt" viewBox="0 0 200.000000 200.000000"
 preserveAspectRatio="xMidYMid meet">

<g transform="translate(0.000000,200.000000) scale(0.100000,-0.100000)"
fill="#000000" stroke="none">
<path d="M1014 1815 l-2 -55 34 0 c19 0 34 4 34 9 0 4 -11 6 -24 4 -24 -5 -25
-4 -19 46 4 39 2 51 -8 51 -10 0 -14 -16 -15 -55z"/>
<path d="M923 1805 c1 -36 6 -55 15 -55 9 0 12 16 10 55 -2 35 -7 55 -15 55
-9 0 -12 -17 -10 -55z"/>
<path d="M970 1845 c10 -12 10 -18 0 -30 -7 -8 -8 -15 -2 -15 16 0 35 29 28
45 -3 8 -13 15 -22 15 -13 0 -14 -3 -4 -15z"/>
<path d="M1115 1823 c-4 -21 -9 -46 -12 -55 -2 -11 1 -18 9 -18 8 0 14 8 14
18 1 9 4 34 9 55 5 24 4 37 -3 37 -6 0 -14 -17 -17 -37z"/>
<path d="M833 1843 c-18 -3 -21 -8 -14 -21 4 -9 11 -34 15 -55 4 -22 11 -35
17 -31 6 3 9 15 6 25 -3 12 1 20 13 24 24 8 33 34 19 51 -12 14 -16 15 -56 7z
m42 -28 c0 -10 -5 -20 -11 -22 -13 -4 -27 24 -18 38 9 15 29 4 29 -16z"/>
<path d="M1182 1788 c-17 -23 -29 -44 -26 -47 3 -3 10 2 15 11 12 22 52 12 46
-13 -3 -10 2 -20 10 -23 11 -5 13 5 11 51 -2 31 -8 58 -13 60 -6 2 -25 -16
-43 -39z m38 2 c0 -11 -7 -20 -15 -20 -18 0 -19 12 -3 28 16 16 18 15 18 -8z"/>
<path d="M730 1745 c0 -30 4 -55 9 -55 5 0 7 8 4 19 -6 25 25 36 47 16 9 -8
20 -12 24 -8 7 7 -62 83 -76 83 -4 0 -8 -25 -8 -55z m34 4 c-10 -16 -24 -9
-24 12 0 18 2 19 15 9 8 -7 12 -16 9 -21z"/>
<path d="M1297 1768 c-4 -13 -15 -33 -26 -45 -11 -11 -17 -24 -14 -27 12 -12
19 -5 32 29 16 44 31 45 32 3 1 -18 4 -44 8 -57 6 -22 9 -20 34 28 16 28 25
51 20 51 -4 0 -15 -15 -23 -32 l-14 -33 -11 49 c-12 54 -29 70 -38 34z"/>
<path d="M882 1716 c-100 -25 -201 -83 -282 -165 -123 -124 -187 -272 -197
-456 -9 -169 26 -303 118 -442 26 -40 46 -73 45 -73 -1 0 -24 11 -52 24 -106
51 -121 45 -184 -70 -36 -66 -42 -83 -37 -121 2 -24 13 -53 23 -65 14 -14 19
-36 19 -74 0 -30 4 -53 10 -51 6 1 10 16 10 32 0 32 -3 32 86 19 34 -6 37 -4
51 31 l14 36 50 -35 c182 -131 382 -192 544 -167 108 17 265 79 355 140 41 29
55 26 55 -8 0 -32 22 -61 46 -61 8 0 28 7 43 15 28 14 29 14 35 -17 5 -24 1
-37 -15 -54 -21 -23 -19 -44 5 -44 38 0 59 79 37 135 -6 14 -2 28 10 47 24 34
24 84 0 139 -11 24 -23 61 -26 82 -10 51 -48 81 -95 73 -19 -3 -66 -22 -105
-41 l-70 -37 46 49 c96 100 148 195 179 325 58 242 -11 499 -179 668 -150 150
-349 211 -539 166z m26 -138 c-2 -15 -11 -24 -25 -26 -25 -4 -31 16 -11 36 20
20 40 14 36 -10z m92 1 c0 -5 -9 -9 -20 -9 -19 0 -26 11 -14 23 8 8 34 -3 34
-14z m-164 -15 c-3 -9 -6 -18 -6 -20 0 -2 -7 -4 -15 -4 -13 0 -14 4 -5 20 13
24 35 27 26 4z m354 -26 c34 -37 37 -44 22 -50 -39 -15 -57 -8 -84 35 l-27 42
22 7 c12 3 23 6 25 7 1 1 20 -18 42 -41z m71 0 c55 -36 61 -48 25 -48 -16 0
-35 13 -56 40 -17 22 -29 40 -25 40 3 0 28 -15 56 -32z m-162 -12 c26 -42 26
-56 1 -56 -13 0 -27 14 -40 40 -25 48 -25 50 -1 50 11 0 28 -14 40 -34z m-75
9 c3 -8 2 -15 -3 -15 -5 0 -14 7 -21 15 -10 12 -10 15 3 15 8 0 17 -7 21 -15z
m-114 -20 c0 -9 -9 -15 -24 -15 -30 0 -43 17 -19 23 34 9 43 7 43 -8z m55 -12
c31 -36 31 -53 1 -53 -19 0 -23 4 -19 19 3 10 0 22 -6 25 -11 7 -16 36 -6 36
3 0 17 -12 30 -27z m-225 -23 c0 -13 -28 -25 -38 -16 -3 4 0 11 8 16 20 13 30
12 30 0z m539 -58 c17 -27 31 -52 31 -55 0 -4 -23 -7 -50 -7 -51 0 -51 0 -70
46 -11 25 -20 47 -20 49 0 2 15 6 33 8 17 2 35 5 38 5 4 1 21 -20 38 -46z
m106 1 c19 -27 35 -51 35 -55 0 -5 -17 -8 -38 -8 -25 0 -41 6 -48 18 -5 9 -20
34 -33 55 l-23 37 36 0 c31 0 40 -6 71 -47z m-221 -13 c22 -56 21 -60 -18 -60
-26 0 -35 5 -40 23 -10 37 -7 47 15 47 15 0 19 5 15 15 -3 8 -2 15 3 15 5 0
16 -18 25 -40z m-514 23 c0 -14 -41 -75 -46 -70 -3 3 5 21 18 41 24 37 28 41
28 29z m69 -2 c21 -13 7 -38 -26 -44 -35 -7 -36 -6 -24 27 11 27 26 32 50 17z
m289 -13 c-3 -7 -13 -13 -23 -13 -10 0 -20 6 -22 13 -3 7 5 12 22 12 17 0 25
-5 23 -12z m-202 -44 c-3 -9 -6 -33 -6 -53 0 -34 -3 -39 -35 -48 -34 -11 -35
-10 -35 17 0 50 12 89 29 93 37 10 53 7 47 -9z m-89 -18 c-3 -7 -8 -34 -12
-59 -7 -42 -10 -46 -52 -62 -24 -9 -46 -15 -49 -13 -2 3 4 31 14 64 16 52 22
60 52 71 46 16 53 16 47 -1z m373 -1 c0 -8 -4 -15 -10 -15 -5 0 -10 7 -10 15
0 8 5 15 10 15 6 0 10 -7 10 -15z m-495 -60 c-8 -22 -14 -48 -15 -57 0 -19
-26 -48 -42 -48 -22 0 27 137 51 143 22 5 22 6 6 -38z m842 29 c-3 -3 -12 -4
-19 -1 -8 3 -5 6 6 6 11 1 17 -2 13 -5z m-35 -30 c44 -8 88 -44 88 -73 0 -11
-10 -30 -22 -41 -19 -18 -30 -20 -74 -14 -60 7 -74 -4 -50 -41 l16 -25 -55 0
c-52 0 -69 10 -44 26 13 7 3 113 -12 129 -14 15 -10 33 9 38 27 7 103 7 144 1z
m-334 -42 c9 -11 45 -48 79 -84 l63 -66 -31 -6 c-54 -11 -92 -7 -86 7 12 31
-8 40 -61 27 -52 -12 -92 -42 -73 -55 6 -3 11 -10 11 -14 0 -10 -51 -22 -62
-15 -4 3 8 36 27 74 19 37 35 72 35 77 0 4 9 23 20 41 22 36 51 42 78 14z
m162 -34 c0 -5 -18 -8 -41 -8 -22 0 -38 3 -36 8 3 4 21 7 41 7 20 0 36 -3 36
-7z m-416 -22 c-3 -8 0 -40 6 -71 8 -40 18 -60 36 -72 29 -19 24 -25 -32 -41
-65 -19 -69 -17 -70 31 -1 44 -19 91 -33 83 -4 -3 -13 -30 -20 -61 -7 -31 -19
-59 -27 -62 -7 -3 -34 2 -59 10 -42 15 -45 15 -45 -1 0 -24 28 -62 46 -62 23
0 16 -14 -13 -27 -38 -18 -45 -16 -38 8 10 32 -32 116 -61 123 -34 9 -30 22
15 39 34 14 44 14 87 1 27 -8 55 -13 63 -12 7 2 21 23 30 48 12 33 25 50 51
62 43 22 71 23 64 4z m91 -41 c-16 -8 -37 -14 -45 -14 -8 0 -1 7 15 14 17 8
37 14 45 14 8 0 2 -7 -15 -14z m-355 1 c0 -2 -7 -7 -16 -10 -8 -3 -12 -2 -9 4
6 10 25 14 25 6z m787 -102 c-3 -3 -12 -4 -19 -1 -8 3 -5 6 6 6 11 1 17 -2 13
-5z m76 -1 c-7 -2 -19 -2 -25 0 -7 3 -2 5 12 5 14 0 19 -2 13 -5z m-13 -33 c0
-5 -25 -10 -55 -10 -30 0 -55 5 -55 10 0 6 25 10 55 10 30 0 55 -4 55 -10z
m93 0 c9 0 17 -4 17 -10 0 -11 -49 -14 -74 -4 -23 9 -7 27 18 20 11 -3 29 -6
39 -6z m-93 -57 c0 -16 -3 -45 -6 -65 -6 -35 -9 -38 -39 -38 -59 0 -65 6 -65
71 l0 59 55 0 c53 0 55 -1 55 -27z m-475 -2 c-47 -17 -66 -19 -52 -5 7 7 65
22 87 22 8 0 -7 -8 -35 -17z m563 10 c11 -7 12 -19 2 -65 -11 -52 -13 -56 -40
-56 -16 0 -31 3 -33 8 -3 4 -2 33 0 65 5 54 7 57 32 57 14 0 32 -4 39 -9z
m-443 -55 c27 -46 25 -76 -6 -76 -19 0 -39 50 -39 98 0 34 17 26 45 -22z m225
0 c0 -34 -4 -45 -19 -49 -33 -8 -39 6 -20 51 23 54 39 54 39 -2z m-430 26 c0
-4 -20 -15 -45 -24 -25 -10 -45 -13 -45 -8 0 6 38 24 88 39 1 1 2 -3 2 -7z
m145 -55 l11 -57 -35 -10 c-60 -17 -59 -18 -85 99 -1 6 77 29 88 27 5 -1 15
-28 21 -59z m-121 -24 c22 -65 21 -68 -25 -86 l-40 -16 -16 36 c-26 64 -23 84
17 99 19 7 38 13 42 13 3 1 13 -20 22 -46z m-177 11 c-27 -14 -54 -23 -60 -21
-14 5 70 47 93 46 8 0 -7 -11 -33 -25z m-92 6 c-3 -5 -12 -10 -18 -10 -7 0 -6
4 3 10 19 12 23 12 15 0z m159 -67 c22 -64 21 -67 -21 -87 -36 -17 -37 -17
-55 6 -18 23 -43 87 -36 92 12 12 84 43 90 40 3 -2 13 -25 22 -51z m-168 12
c-10 -8 -23 -12 -29 -8 -5 3 1 12 14 19 30 15 41 7 15 -11z m684 -7 c0 -13 -3
-39 -6 -59 -6 -34 -8 -36 -43 -34 l-36 3 -3 56 -3 56 46 0 c40 0 45 -2 45 -22z
m106 5 c-2 -10 -10 -37 -17 -61 -12 -40 -15 -43 -43 -40 -17 2 -30 6 -28 11 1
4 2 30 2 57 l0 50 46 0 c38 0 45 -3 40 -17z m84 -4 c0 -27 -54 -109 -72 -109
-22 0 -22 -1 -2 66 14 49 18 54 45 54 16 0 29 -5 29 -11z m-410 -18 c0 -11 -4
-23 -10 -26 -6 -4 -10 5 -10 19 0 14 5 26 10 26 6 0 10 -9 10 -19z m-410 -51
c26 -52 28 -61 15 -66 -19 -8 -15 -11 -54 51 -29 46 -30 51 -14 62 9 7 18 13
20 13 1 0 16 -27 33 -60z m374 14 c4 -19 9 -41 12 -48 3 -8 -5 -16 -19 -20
-14 -3 -32 -8 -40 -11 -9 -4 -19 7 -30 37 -22 56 -21 57 6 68 47 19 64 12 71
-26z m146 1 c0 -37 -3 -39 -58 -49 l-33 -6 37 45 c20 25 40 45 45 45 5 0 9
-16 9 -35z m-251 -32 c7 -21 15 -43 17 -50 5 -11 -43 -43 -64 -43 -7 0 -52 82
-52 95 0 6 61 33 76 34 6 1 16 -16 23 -36z m-94 -64 c25 -49 25 -51 8 -65 -10
-7 -21 -14 -25 -14 -8 0 -88 83 -88 92 0 9 50 37 67 38 7 0 24 -23 38 -51z
m345 -3 c0 -18 -3 -61 -6 -95 -5 -47 -11 -61 -22 -59 -13 3 -50 87 -65 150 -7
28 2 33 66 37 24 1 27 -2 27 -33z m97 17 c-3 -10 -8 -40 -12 -66 -6 -46 -32
-87 -55 -87 -6 0 -10 35 -10 85 l0 85 41 0 c34 0 40 -3 36 -17z m73 10 c0 -3
-11 -30 -25 -59 -29 -62 -50 -81 -42 -38 3 16 8 46 12 67 5 31 10 37 30 37 14
0 25 -3 25 -7z m50 -11 c0 -5 -11 -19 -25 -32 l-24 -23 12 32 c10 28 37 44 37
23z m-314 -91 l29 -90 -22 -4 c-27 -5 -32 0 -72 80 -37 74 -38 81 -8 93 39 16
43 11 73 -79z m-337 29 c23 -27 38 -50 33 -50 -16 0 -102 81 -96 91 10 16 20
10 63 -41z m246 -40 c19 -38 35 -74 35 -80 0 -11 -40 -13 -55 -2 -18 12 -75
95 -75 109 0 9 41 40 57 43 2 0 19 -31 38 -70z m-502 4 c18 -9 75 -46 127 -82
208 -143 351 -179 534 -132 43 11 112 38 154 61 196 107 202 109 262 109 l59
0 20 -55 c26 -68 26 -85 4 -85 -10 0 -97 -38 -193 -85 -204 -99 -294 -126
-430 -128 -153 -3 -268 37 -430 148 -114 78 -197 117 -232 109 -36 -7 -35 2 2
76 41 81 65 93 123 64z m402 -20 c22 -33 14 -39 -24 -19 -33 16 -39 30 -18 38
21 9 24 8 42 -19z m-445 -195 c0 -16 -31 -22 -43 -10 -9 9 -9 14 2 20 16 10
41 4 41 -10z m-75 1 c3 -5 -1 -10 -9 -10 -9 0 -16 5 -16 10 0 6 4 10 9 10 6 0
13 -4 16 -10z m1245 -39 c12 -24 2 -31 -27 -20 -25 9 -30 25 -10 32 21 9 26 7
37 -12z m-1144 -2 c7 -11 -12 -29 -31 -29 -19 0 -38 18 -31 29 4 6 18 11 31
11 13 0 27 -5 31 -11z m1194 -5 c0 -8 -4 -12 -10 -9 -5 3 -10 10 -10 16 0 5 5
9 10 9 6 0 10 -7 10 -16z m-45 -64 c7 -11 -39 -25 -54 -15 -6 3 -11 10 -11 16
0 12 57 12 65 -1z"/>
<path d="M1330 1239 l0 -40 38 3 c29 2 38 8 40 24 4 28 -23 54 -54 54 -21 0
-24 -4 -24 -41z"/>
<path d="M996 1194 c-10 -26 -7 -34 13 -34 27 0 34 15 15 34 -19 20 -20 20
-28 0z"/>
<path d="M422 535 c-7 -14 -12 -33 -12 -42 0 -14 3 -13 26 2 l26 17 -7 -33 -7
-32 31 22 c34 24 47 41 33 41 -6 0 -12 -7 -16 -15 -10 -26 -29 -17 -22 10 7
29 -1 31 -32 9 -24 -17 -27 -13 -11 18 6 11 9 22 6 24 -2 2 -9 -7 -15 -21z"/>
<path d="M1538 503 c-21 -5 -22 -10 -7 -52 11 -32 20 -36 54 -21 17 8 16 9 -9
7 -16 -1 -31 4 -33 11 -3 6 2 12 11 12 8 0 17 4 20 9 3 4 -6 6 -19 3 -31 -6
-33 11 -2 26 23 11 16 13 -15 5z"/>
<path d="M505 466 c-31 -46 22 -89 57 -46 22 27 22 34 2 54 -22 22 -41 20 -59
-8z m54 0 c24 -29 -20 -70 -47 -43 -11 12 -11 19 -3 36 13 24 33 27 50 7z"/>
<path d="M1450 455 c-22 -26 3 -67 37 -63 19 2 29 10 31 23 l4 20 -16 -20
c-12 -16 -18 -18 -33 -9 -26 16 -23 47 7 55 22 6 23 7 4 8 -12 1 -27 -6 -34
-14z"/>
<path d="M594 438 c-4 -7 -14 -24 -23 -38 -15 -25 -15 -25 5 -7 24 20 34 14
35 -22 1 -21 2 -22 6 -6 3 11 13 25 22 31 14 11 14 14 -3 33 -22 24 -32 26
-42 9z m36 -13 c7 -9 10 -18 7 -21 -10 -11 -37 5 -37 21 0 19 14 19 30 0z"/>
<path d="M1410 428 c0 -9 9 -26 20 -39 l21 -24 -17 35 c-21 43 -24 47 -24 28z"/>
<path d="M655 379 c-17 -31 -8 -59 18 -59 6 0 2 6 -8 14 -14 10 -17 17 -9 27
13 16 25 49 19 49 -2 0 -12 -14 -20 -31z"/>
<path d="M1354 372 c37 -40 46 -40 45 1 -1 23 -3 26 -6 10 -5 -29 -10 -29 -42
-1 -21 19 -20 17 3 -10z"/>
<path d="M714 344 c-16 -39 -9 -53 27 -54 39 0 54 61 20 80 -28 15 -31 14 -47
-26z m40 20 c9 -3 16 -14 16 -24 0 -23 -26 -44 -44 -37 -12 5 -13 11 -3 36 6
17 12 31 13 31 1 0 9 -3 18 -6z"/>
<path d="M1272 371 c-11 -7 -10 -16 8 -47 13 -24 19 -30 16 -16 -5 26 8 30 49
17 18 -6 18 -5 3 5 -10 6 -18 20 -18 30 0 21 -33 27 -58 11z m46 -13 c-7 -19
-38 -22 -38 -4 0 10 9 16 21 16 12 0 19 -5 17 -12z"/>
<path d="M796 335 c-3 -8 -1 -15 4 -15 6 0 10 7 10 15 0 8 -2 15 -4 15 -2 0
-6 -7 -10 -15z"/>
<path d="M1203 338 c-7 -9 -6 -24 3 -45 15 -35 21 -38 44 -22 13 8 12 9 -4 7
-28 -4 -30 17 -4 30 22 11 22 11 -4 6 -32 -7 -38 9 -10 25 15 9 15 10 1 11 -9
0 -21 -6 -26 -12z"/>
<path d="M825 310 c-14 -16 -20 -17 -27 -8 -5 9 -8 6 -8 -9 0 -13 3 -23 6 -23
9 0 56 51 51 56 -2 2 -12 -5 -22 -16z"/>
<path d="M1134 316 c-22 -16 -10 -36 22 -36 15 0 24 -6 24 -16 0 -12 -7 -15
-25 -12 -13 3 -22 1 -19 -3 8 -14 40 -11 53 4 14 18 -5 37 -36 37 -13 0 -23 4
-23 9 0 15 27 20 39 8 8 -8 11 -8 11 0 0 18 -27 23 -46 9z"/>
<path d="M874 294 c-13 -19 -19 -22 -25 -12 -6 9 -9 6 -9 -9 0 -32 11 -28 38
12 12 19 20 35 17 35 -2 0 -12 -12 -21 -26z"/>
<path d="M900 275 c-7 -20 -10 -39 -7 -42 3 -3 10 12 16 33 6 21 9 40 7 42 -2
2 -9 -13 -16 -33z"/>
<path d="M934 286 c-9 -36 -1 -60 19 -64 42 -8 66 57 28 78 -30 15 -40 12 -47
-14z m40 8 c30 -11 12 -64 -21 -64 -13 0 -19 51 -6 63 8 8 8 8 27 1z"/>
<path d="M1040 303 c-23 -4 -25 -8 -22 -43 4 -38 6 -40 36 -39 30 2 30 2 4 6
-34 5 -37 30 -5 36 l22 4 -22 2 c-25 1 -32 21 -9 21 8 0 18 5 21 10 3 6 5 9 3
9 -2 -1 -14 -4 -28 -6z"/>
<path d="M562 1694 c-18 -14 -32 -31 -32 -37 0 -7 7 -4 14 6 13 16 16 15 46
-19 23 -27 34 -34 43 -25 8 8 8 11 0 11 -7 0 -22 14 -34 31 -18 25 -19 33 -8
39 7 5 11 11 8 14 -2 3 -19 -6 -37 -20z"/>
<path d="M1380 1690 c-11 -11 -20 -28 -20 -38 0 -22 30 -52 51 -51 8 0 4 4 -8
9 -28 12 -30 43 -3 70 23 23 48 17 59 -13 5 -13 10 -16 15 -9 8 14 -32 52 -56
52 -10 0 -27 -9 -38 -20z"/>
<path d="M498 1639 c-22 -12 -24 -57 -3 -65 8 -4 26 1 40 10 22 15 26 15 31 2
8 -21 -3 -36 -29 -37 -18 -1 -18 -2 -4 -6 24 -6 47 14 47 42 0 29 -18 36 -51
19 -15 -7 -29 -10 -33 -7 -12 12 -6 33 9 33 8 0 15 5 15 10 0 12 0 12 -22 -1z"/>
<path d="M1459 1606 l-37 -34 27 -26 c15 -14 31 -26 35 -26 5 0 -2 9 -15 19
-23 19 -23 20 -6 38 18 17 19 17 33 -1 8 -11 14 -15 14 -10 0 6 -5 15 -12 22
-9 9 -9 15 1 25 10 10 16 7 32 -12 10 -13 19 -19 19 -14 0 9 -42 53 -51 53 -2
0 -20 -16 -40 -34z"/>
<path d="M426 1543 c-19 -26 -19 -26 5 -45 13 -11 32 -26 42 -34 11 -9 20 -14
21 -12 35 49 45 68 37 72 -5 3 -12 -5 -15 -19 -7 -28 -33 -34 -42 -10 -4 8 -1
22 6 30 7 8 9 15 5 15 -4 0 -14 -8 -21 -17 -10 -14 -15 -15 -25 -6 -10 10 -9
17 6 33 10 11 14 20 9 20 -5 0 -18 -12 -28 -27z"/>
<path d="M425 1460 c38 -30 38 -30 11 -30 -15 0 -36 5 -47 10 -30 16 -23 0 14
-31 34 -30 23 -38 -27 -19 -14 5 -28 6 -30 1 -6 -8 59 -31 88 -31 20 0 21 14
1 30 -23 19 -18 27 16 22 29 -4 30 -3 20 16 -12 23 -59 62 -74 62 -5 0 7 -13
28 -30z"/>
<path d="M1587 1450 c-31 -17 -44 -30 -37 -35 6 -4 17 -2 23 4 8 8 17 5 32 -9
40 -38 70 -3 42 46 l-12 22 -48 -28z m61 -18 c5 -17 -27 -27 -41 -13 -9 9 -8
14 3 21 18 11 32 8 38 -8z"/>
<path d="M1580 1359 c0 -6 8 -8 19 -4 24 7 39 -29 20 -51 -6 -8 -9 -17 -5 -21
3 -4 24 11 46 32 42 41 43 47 7 52 -17 2 -19 1 -7 -7 12 -8 13 -11 1 -22 -11
-11 -16 -9 -28 10 -16 22 -53 31 -53 11z"/>
<path d="M326 1338 c-26 -37 -19 -52 31 -71 25 -9 48 -15 50 -13 2 2 7 21 10
41 5 30 2 41 -12 51 -28 21 -62 17 -79 -8z m77 -19 c6 -9 7 -24 4 -33 -6 -15
-9 -15 -44 1 -21 10 -40 19 -42 20 -2 1 2 10 9 18 16 20 59 16 73 -6z"/>
<path d="M1668 1271 c-50 -15 -68 -42 -23 -33 30 5 33 -11 6 -30 -12 -8 -17
-19 -12 -26 6 -9 12 -8 24 6 11 12 26 17 41 15 29 -6 37 12 22 52 l-11 30 -47
-14z m52 -31 c0 -11 -6 -20 -14 -20 -18 0 -29 16 -21 30 11 18 35 11 35 -10z"/>
<path d="M290 1247 c0 -10 14 -18 40 -22 22 -4 43 -11 46 -17 4 -6 10 -5 15 3
11 18 11 32 0 25 -8 -5 -45 3 -83 19 -13 5 -18 2 -18 -8z"/>
<path d="M280 1179 c0 -10 4 -19 8 -19 5 0 17 -7 28 -14 18 -14 18 -15 -13
-26 -52 -19 -41 -38 22 -42 30 -1 55 0 55 5 0 4 -19 7 -42 8 l-43 0 40 18 c36
16 38 19 18 25 -11 4 -27 14 -34 22 -11 14 -8 15 26 13 26 -3 40 1 43 10 3 9
-2 11 -16 6 -12 -3 -37 -2 -57 4 -31 8 -35 7 -35 -10z"/>
<path d="M1734 1172 c6 -17 1 -21 -33 -27 -22 -4 -45 -4 -51 0 -5 3 -10 -1
-10 -9 0 -12 9 -14 49 -9 42 5 50 3 54 -13 3 -11 5 0 6 23 0 23 -4 45 -10 49
-7 4 -9 0 -5 -14z"/>
<path d="M1650 1075 c-18 -21 -2 -67 24 -71 12 -2 22 7 29 27 11 29 30 38 42
19 4 -6 1 -17 -5 -25 -7 -9 -8 -15 -2 -15 16 0 23 30 11 51 -14 28 -52 21 -59
-10 -3 -14 -11 -26 -18 -29 -18 -6 -26 26 -12 43 7 9 11 18 8 20 -3 3 -11 -2
-18 -10z"/>
</g>
</svg>
